<svg width="13" height="11" viewBox="0 0 13 11" fill="none" xmlns="http://www.w3.org/2000/svg">
<path d="M0.536535 10.4005C0.536535 10.5047 0.621087 10.5894 0.725395 10.5894H12.2263C12.3305 10.5894 12.4152 10.5048 12.4152 10.4005C12.4152 10.2963 12.3307 10.2116 12.2263 10.2116H11.8772V4.78922C11.8772 4.68505 11.7927 4.60036 11.6884 4.60036L8.60487 4.60049V0.691208C8.60487 0.625096 8.57036 0.563987 8.514 0.529743C8.45776 0.49537 8.38743 0.493263 8.32896 0.523685L4.82324 2.34893C4.76068 2.38146 4.7217 2.44599 4.7217 2.51645V5.93113H1.32894C1.22476 5.93113 1.14008 6.01569 1.14008 6.11999V10.2117H0.724974C0.6208 10.2115 0.536377 10.2961 0.536377 10.4004L0.536535 10.4005ZM8.60494 7.46084H11.4997V10.2118L8.60494 10.2117V7.46084ZM8.60494 6.14844H11.4997V7.08326L8.60494 7.08313V6.14844ZM8.60494 4.97801H11.4997V5.771H8.60494V4.97801ZM5.09922 2.63113L8.22709 1.00251V10.2115H5.09922V2.63113ZM2.45139 8.70325C2.45139 8.31131 2.76194 7.99233 3.14374 7.99233C3.52553 7.99233 3.83622 8.31117 3.83622 8.70325V10.2117H2.45139V8.70325ZM1.51778 6.30879H4.72165V10.2117H4.21393V8.70318C4.21393 8.10301 3.73402 7.61468 3.14374 7.61468C2.55372 7.61468 2.07382 8.10288 2.07382 8.70318V10.2117H1.51778V6.30879Z" fill="#103E13"/>
</svg>
